#!OML:ASF F:\VICON\USERDATA\INSTALL\rory3\rory3.ASF
:FULLY-SPECIFIED
:DEGREES
27
root 0.5052806704469249 17.83584270518586 -10.412584121018241 0.7179455031537056 -3.71985651851757 -8.033780907301617
lfemur -26.34306875298615 -5.405549840441097 -8.843722462606205
ltibia 16.12229464868647
lfoot -5.893408957468775 1.7462114236064723
ltoes -14.883654529148298
rfemur 5.885709978152706 5.244290732377188 34.190543941822234
rtibia 23.214137798375035
rfoot -17.277882646972248 -8.865759280927152
rtoes 0.33746936401848227
lowerback 10.802962217778463 1.9472969354771625 6.461595702292898
upperback -0.4238899987133002 3.6355368499327145 2.3225303449623453
thorax -5.919997834497929 1.6630420886362791 -1.9233425299769606
lowerneck -16.647928772460876 -3.861324689129407 -1.521682610315105
upperneck 21.05850782954724 -5.453438294764484 1.8723318512996707
head 9.60784595986684 -2.440489950907605 0.05636417026953891
lclavicle 3.071113458798999e-16 6.042351593199075e-17
lhumerus -33.62530491713186 11.728984779001365 78.54062754623273
lradius 19.033183946121113
lwrist 1.0948168969358267
lhand -29.11069653996508 18.45700128466102
lfingers 7.125020000000001
lthumb -2.3690423351568395 48.61191930077715
rclavicle 2.983025500217407e-16 5.473499082161936e-17
rhumerus -19.939608253697784 -11.525275637369015 -81.90314208781729
rradius 34.64776552273217
rwrist -2.207074221680981
rhand -18.98606464598884 23.133140038444836
rfingers 7.125020000000001
rthumb 7.260612264843875 -6.927139734617427
28
root 0.593215034743023 17.826004324824037 -9.300279447797138 0.761297135754555 -3.86212705265856 -7.341913908361635
lfemur -25.566245452506966 -5.239166864179056 -10.610295864060381
ltibia 14.972413152035163
lfoot -4.912836568233308 0.23297841963608512
ltoes -15.20587634642979
rfemur 6.705447053256149 5.258662122370338 32.86376970502219
rtibia 25.49348119905539
rfoot -16.32352137957348 -7.934995499033842
rtoes -2.315798344582311
lowerback 10.717056046940545 1.9741919285694862 5.980221159602305
upperback -0.5373207123815121 3.6710333630236844 2.1908027540334043
thorax -5.904535417948889 1.6851918369320982 -1.8980100567101028
lowerneck -16.63639680275135 -3.852491805198802 -1.586013194564792
upperneck 21.0505281903286 -5.4484776574363 1.9935051166946312
head 9.593770193718752 -2.4242947500796697 0.11200217711873245
lclavicle 3.12267866748174e-16 6.336970606239752e-17
lhumerus -33.769952984865924 11.88756495500408 78.39726471760609
lradius 18.79428844639947
lwrist 0.5787280121891278
lhand -29.002835262802027 18.331134638038826
lfingers 7.125020000000001
lthumb -2.321809355746697 48.80486361991006
rclavicle 2.9699352693463727e-16 5.379625146717724e-17
rhumerus -19.960189578328187 -12.369977622639306 -81.82775237089831
rradius 34.67895964723106
rwrist -1.9680725874586273
rhand -18.941918312098448 23.35386428351454
rfingers 7.125020000000001
rthumb 7.435844619556093 -6.551164996790764
29
root 0.680295828926334 17.849461955227 -7.920422872346453 -0.3909907287280441 -3.126510728554156 -6.262491232324419
lfemur -25.183324361339437 -4.082192497693604 -13.397228453364372
ltibia 19.266389697389602
lfoot -3.075740998550301 -2.71883107558946
ltoes -14.105363765065125
rfemur 6.999791566214066 4.947602012292638 31.346167925878266
rtibia 29.119884551816735
rfoot -13.674109855435777 -6.7598805925228245
rtoes -4.167077626907056
lowerback 11.004750289404269 1.8659884321968727 5.120535859245696
upperback -0.5563172886463885 3.4845019025308845 1.9816250273901106
thorax -5.914131199966947 1.622921204027402 -1.810245759929365
lowerneck -16.528543226302624 -3.8984536539200123 -1.7170877228360197
upperneck 21.037556379405025 -5.552398981851857 2.215312423907477
head 9.549151488920636 -2.4460086386610955 0.19656349324741834
lclavicle 3.0800552658837387e-16 6.052183251824043e-17
lhumerus -33.902873720318446 11.98720319366536 78.27402942391238
lradius 18.81950338879063
lwrist 0.07923061606111581
lhand -28.69775251219295 19.21699281486365
lfingers 7.125020000000001
lthumb -1.8576832428273726 49.873616637082165
rclavicle 2.9833127787329896e-16 5.475575426636754e-17
rhumerus -20.822890406931954 -13.713285893824679 -81.5629996203599
rradius 34.27255983896779
rwrist -1.3085916932809023
rhand -19.044826008009128 23.518366362631152
rfingers 7.125020000000001
rthumb 7.480201636717923 -6.151625682869341
30
root 0.7682047033392232 17.930586336356384 -7.23001645901304 -1.141083170713787 -2.494629837198988 -4.535475711066679
lfemur -23.832640091597465 -3.9925046686452044 -16.522816371548828
ltibia 23.372410155426323
lfoot -1.1403681653202362 -5.931830549469721
ltoes -10.48614096978401
rfemur 5.838050482431266 3.9589040388159766 28.67516708834711
rtibia 35.08626533198573
rfoot -8.640782053309286 -5.1622891422353625
rtoes -3.3314858623252945
lowerback 10.603732025463152 1.754621380004949 3.7569441803434893
upperback -0.3211614907514315 2.988821368698387 1.6385500598902027
thorax -5.802940742626505 1.4372497912010243 -1.4098940020330455
lowerneck -16.419669639682912 -3.9798718407002083 -1.7850648081358864
upperneck 21.299478962476012 -5.690389199996416 2.2226749327946833
head 9.565946348977823 -2.4924256313628974 0.21689930159555443
lclavicle 3.0169137949230635e-16 5.563047120344638e-17
lhumerus -33.89873230703467 11.548264036586366 78.57629931912722
lradius 19.20887390967821
lwrist 0.3706204226097132
lhand -28.437822561694713 19.837652113081333
lfingers 7.125020000000001
lthumb -1.577558455596401 50.48291436987499
rclavicle 3.0003312069566034e-16 5.597608972346008e-17
rhumerus -22.80514253202624 -15.481180166256173 -81.09665404866675
rradius 33.729286908017514
rwrist -0.36169722682265837
rhand -19.116664288596827 23.810112254829306
rfingers 7.125020000000001
rthumb 7.276196534876138 -5.996517865653265
31
root 0.8891717459075862 18.024957791386665 -7.049414839187019 -1.5914526221033036 -1.7447661664814857 -4.40459350058795
lfemur -22.084952873457777 -3.5814288453089196 -17.787011545973538
ltibia 26.819332147067584
lfoot -1.2702036132674133 -7.405091180056305
ltoes -7.169564061916889
rfemur 2.898423410432132 2.4483294488652505 27.53379956098914
rtibia 43.227271033328265
rfoot -0.9593129642347575 -3.760894188384179
rtoes 2.451888626544523
lowerback 10.38716962802631 1.5161863666338713 3.8546735116529645
upperback -0.3477456870428971 2.685510245666409 1.5639611507922684
thorax -6.02749799728677 1.2470129621712518 -0.9041053049424301
lowerneck -16.231366416841404 -3.98358385265724 -1.9118085176701438
upperneck 21.570784389499032 -5.7044312145323826 2.2954197972159034
head 9.594946938645789 -2.5029026865732344 0.25563604023031716
lclavicle 2.9151575961055054e-16 5.011391806848058e-17
lhumerus -33.59235325479366 10.669257613484577 79.1514367641122
lradius 19.725824050245
lwrist 2.3635689773046025
lhand -28.478072688271247 20.07142345593096
lfingers 7.125020000000001
lthumb -1.624759779806532 50.374484688746605
rclavicle 2.995219185303489e-16 5.560972540507927e-17
rhumerus -24.995824802858422 -17.18963918008933 -80.4719284623073
rradius 32.91017629432203
rwrist 0.8152850968215302
rhand -19.04173162727855 23.67603390363865
rfingers 7.125020000000001
rthumb 7.345550243428617 -6.078641323573621
32
root 1.0045495233706385 18.136694812279327 -6.873177414907634 -2.2130712937316086 -2.3921355087405503 -3.498088010657965
lfemur -19.11193282584403 -2.549954228087546 -19.759841383930947
ltibia 28.770925489832127
lfoot -1.6567949619778153 -6.928515524084003
ltoes -4.293864751447886
rfemur -1.93138714948633 1.9576385469417676 25.453881682057123
rtibia 52.72579576295617
rfoot 7.341398944780015 -3.9135808950307736
rtoes 12.953620856418826
lowerback 10.657686840893668 1.5517521023995626 3.3116264004510887
upperback -0.48588578400324667 2.7028187019056347 1.4439090611488106
thorax -6.292006189092684 1.2791381820734453 -0.6647999042796988
lowerneck -16.2648418830167 -3.947358089246473 -1.901883891635379
upperneck 21.768627686772476 -5.645770074085627 2.2396373997563757
head 9.659412044121545 -2.493095424746559 0.2546103490784578
lclavicle 2.9628148757038127e-16 5.4124975573043016e-17
lhumerus -33.06577563056988 9.546171327839339 79.75837345195721
lradius 20.610060204105316
lwrist 4.677697419127014
lhand -29.272335568727755 18.862097724465162
lfingers 7.125020000000001
lthumb -2.28189612416376 49.204526483413396
rclavicle 2.9947848244887044e-16 5.557937458349114e-17
rhumerus -26.52929574751858 -18.042904290662594 -80.0811324561772
rradius 32.14260731037648
rwrist 1.7623229930287967
rhand -18.657134905339742 23.346721162162854
rfingers 7.125020000000001
rthumb 7.753091856659199 -6.39881695125658
33
root 1.0739692526663935 18.19302091022017 -6.554306678943675 -2.586139466988402 -2.5722228948090136 -1.4893616080115557
lfemur -15.118852208694761 -2.2934266019119605 -22.591855754704575
ltibia 28.381371392148427
lfoot -4.554530181518032 -5.132133715429726
ltoes -1.8483241598774889
rfemur -7.792433811009572 0.9161219558976774 22.570813613369165
rtibia 62.34393542755565
rfoot 10.95768906994524 -6.795984181838384
rtoes 18.608535146769874
lowerback 10.961167898783122 1.499926751411914 1.4612261385572314
upperback -0.4763561227357138 2.479210677988571 1.1530463420231318
thorax -6.440251967795651 1.2022046108888593 -0.13531164758404501
lowerneck -16.38514844164835 -3.8336723162047868 -1.9350365309180257
upperneck 21.58962143970165 -5.413099429195975 2.1422676180948668
head 9.625431070997585 -2.416251365182165 0.2619257280495117
lclavicle 3.0152791432219076e-16 5.703944746211726e-17
lhumerus -32.520036401123434 8.361241421726607 80.18441471686613
lradius 21.522504618415805
lwrist 5.966362277863782
lhand -29.566948654803753 18.065657987485434
lfingers 7.125020000000001
lthumb -2.52136301222514 48.396640339019676
rclavicle 2.9689620902910056e-16 5.372596367563156e-17
rhumerus -27.161453564255503 -18.658323362035265 -79.8313005786535
rradius 31.162170990683975
rwrist 2.5564800749801013
rhand -18.096652704404985 22.97098804870842
rfingers 7.125020000000001
rthumb 8.154972018769875 -6.799408979156382
34
root 1.1222989377022223 18.20602279767709 -6.005452824192133 -3.032742767319977 -2.2833360596829917 -0.4141648126369999
lfemur -11.87738325239977 -2.0635424543172647 -24.250898795467265
ltibia 27.889125219901658
lfoot -7.908284419834114 -3.600017185380741
ltoes 0.30104511437260584
rfemur -13.528033359887083 -0.9092380397735385 21.02862105732628
rtibia 69.76319302723803
rfoot 7.175672171358763 -10.185073716697284
rtoes 15.131831035354473
lowerback 11.461070972438412 1.265202760992327 0.07579395705332104
upperback -0.38050676893510793 1.9272324745259242 0.9972177835463465
thorax -6.580379766293773 0.9622802075363822 0.57010203950135
lowerneck -16.466381508310544 -3.6682419651526432 -1.9447666732930218
upperneck 21.048067846554677 -5.106031457011004 2.0827401703410295
head 9.456988771450902 -2.300528702774795 0.3002676044921931
lclavicle 3.003441490610826e-16 5.561213276939974e-17
lhumerus -31.860994926762427 7.040515994153196 80.46744044870238
lradius 22.441286453855458
lwrist 6.714648941230465
lhand -29.92404531602298 16.91740571768456
lfingers 7.125020000000001
lthumb -2.939344372972103 47.001379865381175
rclavicle 2.975684679610452e-16 5.42087805479534e-17
rhumerus -27.555360860056243 -19.468101458499635 -79.62537379279847
rradius 30.13154535318189
rwrist 3.739094452086055
rhand -17.830197369019682 22.736843269902494
rfingers 7.125020000000001
rthumb 8.427420034514382 -7.0162720301936154
